<svg width="25" height="25" viewBox="0 0 25 25" fill="none" xmlns="http://www.w3.org/2000/svg">
<path d="M12.3667 0.266628C5.54767 0.266628 0 5.8143 0 12.6333C0 19.4523 5.54767 25 12.3667 25C19.1857 25 24.7334 19.4523 24.7334 12.6333C24.7334 5.8143 19.1857 0.266628 12.3667 0.266628ZM21.9857 6.52155L19.2404 8.10658C18.6248 7.17491 17.8251 6.37524 16.8934 5.75958L18.4785 3.01427C19.8877 3.91287 21.0871 5.11228 21.9857 6.52155ZM23.7556 12.1499H20.5855C20.5187 11.0027 20.216 9.91777 19.7252 8.94305L22.4702 7.35821C23.2271 8.80216 23.6834 10.4271 23.7556 12.1499ZM20.5855 13.1167H23.7556C23.6834 14.8395 23.2271 16.4645 22.4702 17.9084L19.7252 16.3236C20.216 15.3489 20.5187 14.264 20.5855 13.1167ZM8.67475 5.27193L7.09165 2.5299C8.53559 1.77296 10.1606 1.3167 11.8834 1.24445V4.41541C10.7541 4.47993 9.66971 4.77042 8.67475 5.27193ZM12.8501 1.24438C14.5729 1.31663 16.1978 1.7729 17.6418 2.52984L16.0569 5.27477C15.0822 4.78396 13.9973 4.48128 12.8501 4.41451V1.24438ZM6.25492 3.01427L7.83834 5.75688C7.66915 5.86877 7.50279 5.98633 7.34057 6.11156C7.12922 6.27469 7.0901 6.5782 7.25323 6.78961C7.4163 7.00095 7.71987 7.04007 7.93128 6.87694C9.21151 5.88894 10.7452 5.36674 12.3667 5.36674C16.3735 5.36674 19.6333 8.62652 19.6333 12.6333C19.6333 16.6401 16.3735 19.8999 12.3667 19.8999C8.35989 19.8999 5.10011 16.6401 5.10011 12.6333C5.10011 11.0461 5.60252 9.53834 6.55308 8.27306C6.71344 8.05959 6.67038 7.7566 6.45691 7.59624C6.24345 7.43594 5.94039 7.479 5.78009 7.6924C5.67864 7.82743 5.58319 7.96568 5.49076 8.10542L2.74764 6.52155C3.64618 5.11228 4.84571 3.91281 6.25492 3.01427ZM11.8833 20.8521V24.0222C10.1605 23.95 8.53553 23.4937 7.09158 22.7368L8.67636 19.9919C9.65115 20.4827 10.736 20.7853 11.8833 20.8521ZM12.8501 20.8521C13.9973 20.7853 15.0822 20.4827 16.0569 19.9919L17.6418 22.7368C16.1978 23.4937 14.5729 23.95 12.8501 24.0222V20.8521ZM0.977754 13.1167H4.14788C4.21465 14.264 4.51733 15.3489 5.00814 16.3236L2.26321 17.9084C1.50627 16.4645 1.05001 14.8395 0.977754 13.1167ZM2.26321 7.35821L5.00575 8.94163C4.50424 9.93717 4.21349 11.022 4.14878 12.1499H0.977754C1.05001 10.4271 1.50627 8.80216 2.26321 7.35821ZM2.74764 18.7451L5.49295 17.16C6.10861 18.0917 6.90828 18.8914 7.83995 19.507L6.25492 22.2524C4.84565 21.3538 3.64618 20.1544 2.74764 18.7451ZM18.4785 22.2524L16.8934 19.507C17.8251 18.8914 18.6248 18.0917 19.2404 17.16L21.9858 18.7451C21.0872 20.1543 19.8877 21.3538 18.4785 22.2524Z" fill="#E00000"/>
<path d="M12.129 17.2959C12.2027 17.3376 12.2847 17.3584 12.3666 17.3584C12.4486 17.3584 12.5306 17.3376 12.6043 17.2959C12.7831 17.195 16.9834 14.7895 16.9834 11.8083C16.9834 10.2919 15.7497 9.05829 14.2333 9.05829C13.5345 9.05829 12.8699 9.32449 12.3667 9.79003C11.8635 9.32455 11.1988 9.05829 10.5001 9.05829C8.9837 9.05829 7.75 10.292 7.75 11.8083C7.74994 14.7895 11.9502 17.195 12.129 17.2959ZM10.5 10.0251C11.0858 10.0251 11.6349 10.3141 11.9687 10.7982C12.0589 10.929 12.2077 11.0072 12.3666 11.0072C12.5256 11.0072 12.6744 10.9291 12.7646 10.7982C13.0984 10.3141 13.6475 10.0251 14.2333 10.0251C15.2166 10.0251 16.0166 10.8251 16.0166 11.8083C16.0166 13.8722 13.2115 15.782 12.3666 16.3104C11.5215 15.7818 8.71673 13.872 8.71673 11.8083C8.71673 10.825 9.51666 10.0251 10.5 10.0251Z" fill="#E00000"/>
</svg>
