<svg width="33" height="33" viewBox="0 0 33 33" fill="none" xmlns="http://www.w3.org/2000/svg">
<path d="M3.40967 13.803C3.40967 14.0699 3.62603 14.2864 3.89306 14.2864H11.0543C11.3213 14.2864 11.5377 14.0699 11.5377 13.803C11.5377 13.536 11.3213 13.3196 11.0543 13.3196H3.89306C3.6261 13.3196 3.40967 13.536 3.40967 13.803Z" fill="#E00000"/>
<path d="M3.68639 18.5713C4.62777 18.5713 5.39372 17.8054 5.39372 16.8639C5.39372 15.9225 4.62777 15.1566 3.68639 15.1566C2.74501 15.1566 1.97913 15.9225 1.97913 16.8639C1.97913 17.8054 2.74501 18.5713 3.68639 18.5713ZM3.68639 16.1234C4.09476 16.1234 4.42694 16.4556 4.42694 16.8639C4.42694 17.2722 4.09476 17.6045 3.68639 17.6045C3.27809 17.6045 2.9459 17.2723 2.9459 16.8639C2.9459 16.4556 3.27809 16.1234 3.68639 16.1234Z" fill="#E00000"/>
<path d="M3.68639 25.7049C4.62777 25.7049 5.39372 24.939 5.39372 23.9976C5.39372 23.0562 4.62777 22.2903 3.68639 22.2903C2.74501 22.2903 1.97913 23.0561 1.97913 23.9976C1.97913 24.939 2.74501 25.7049 3.68639 25.7049ZM3.68639 23.257C4.09476 23.257 4.42694 23.5892 4.42694 23.9976C4.42694 24.406 4.09476 24.7381 3.68639 24.7381C3.27809 24.7381 2.9459 24.406 2.9459 23.9976C2.9459 23.5892 3.27809 23.257 3.68639 23.257Z" fill="#E00000"/>
<path d="M5.76648 20.4307C5.76648 21.3722 6.53242 22.1381 7.47381 22.1381C8.41519 22.1381 9.18107 21.3722 9.18107 20.4307C9.18107 19.4893 8.41519 18.7234 7.47381 18.7234C6.53242 18.7234 5.76648 19.4893 5.76648 20.4307ZM8.21429 20.4307C8.21429 20.8391 7.88211 21.1713 7.47381 21.1713C7.06544 21.1713 6.73326 20.8391 6.73326 20.4307C6.73326 20.0224 7.06544 19.6902 7.47381 19.6902C7.88211 19.6902 8.21429 20.0224 8.21429 20.4307Z" fill="#E00000"/>
<path d="M11.2613 15.1566C10.3199 15.1566 9.55396 15.9225 9.55396 16.8639C9.55396 17.8053 10.3199 18.5713 11.2613 18.5713C12.2027 18.5713 12.9685 17.8054 12.9685 16.8639C12.9685 15.9225 12.2027 15.1566 11.2613 15.1566ZM11.2613 17.6045C10.8529 17.6045 10.5207 17.2723 10.5207 16.8639C10.5207 16.4556 10.8529 16.1234 11.2613 16.1234C11.6696 16.1234 12.0018 16.4556 12.0018 16.8639C12.0018 17.2723 11.6696 17.6045 11.2613 17.6045Z" fill="#E00000"/>
<path d="M3.68639 1.90101C2.74501 1.90101 1.97913 2.66689 1.97913 3.60834C1.97913 4.54972 2.74501 5.31567 3.68639 5.31567C4.62777 5.31567 5.39372 4.54979 5.39372 3.60834C5.39378 2.66696 4.62784 1.90101 3.68639 1.90101ZM3.68639 4.34889C3.27809 4.34889 2.9459 4.01671 2.9459 3.60834C2.9459 3.19997 3.27809 2.86779 3.68639 2.86779C4.09476 2.86779 4.42694 3.19997 4.42694 3.60834C4.42701 4.01671 4.09476 4.34889 3.68639 4.34889Z" fill="#E00000"/>
<path d="M9.18107 7.17521C9.18107 6.23382 8.41519 5.46788 7.47381 5.46788C6.53242 5.46788 5.76648 6.23376 5.76648 7.17521C5.76648 8.11666 6.53242 8.88254 7.47381 8.88254C8.41519 8.88254 9.18107 8.11666 9.18107 7.17521ZM6.73326 7.17521C6.73326 6.76691 7.06544 6.43466 7.47381 6.43466C7.88211 6.43466 8.21429 6.76684 8.21429 7.17521C8.21429 7.58357 7.88211 7.91576 7.47381 7.91576C7.06544 7.91576 6.73326 7.58357 6.73326 7.17521Z" fill="#E00000"/>
<path d="M11.2613 9.03466C10.3199 9.03466 9.55396 9.80055 9.55396 10.742C9.55396 11.6834 10.3199 12.4493 11.2613 12.4493C12.2027 12.4493 12.9685 11.6834 12.9685 10.742C12.9685 9.80055 12.2027 9.03466 11.2613 9.03466ZM11.2613 11.4825C10.8529 11.4825 10.5207 11.1504 10.5207 10.742C10.5207 10.3336 10.8529 10.0014 11.2613 10.0014C11.6696 10.0014 12.0018 10.3336 12.0018 10.742C12.0018 11.1504 11.6696 11.4825 11.2613 11.4825Z" fill="#E00000"/>
<path d="M31.7713 6.86314L21.148 3.11253C20.1912 2.7748 19.1374 3.27837 18.7993 4.23548L14.9476 15.1451V1.84082C14.9476 0.825763 14.1218 0 13.1067 0H1.84082C0.825763 0 0 0.825763 0 1.84082V6.64549C0 6.91245 0.216366 7.12888 0.483392 7.12888C0.750418 7.12888 0.966785 6.91245 0.966785 6.64549V1.84082C0.966785 1.35885 1.35885 0.966785 1.84082 0.966785H13.1068C13.5887 0.966785 13.9809 1.35885 13.9809 1.84082V17.8833L12.3003 22.6432C12.0096 22.4201 11.6473 22.2902 11.2612 22.2902C10.3198 22.2902 9.5539 23.0561 9.5539 23.9975C9.5539 24.9251 10.2973 25.6822 11.2195 25.7044L10.8895 26.639H1.84082C1.35885 26.639 0.966785 26.247 0.966785 25.765V8.55991C0.966785 8.29295 0.750418 8.07652 0.483392 8.07652C0.216366 8.07652 0 8.29295 0 8.55991V25.765C0 26.7801 0.825763 27.6058 1.84082 27.6058H10.7392C10.8156 28.3063 11.2962 28.9101 11.9575 29.1435L19.3064 31.7382C19.5581 31.8269 19.8342 31.6951 19.9232 31.4433C20.0121 31.1916 19.88 30.9155 19.6283 30.8266L12.2793 28.2319C11.8525 28.0812 11.5947 27.5457 11.7462 27.1168L19.7109 4.55736C19.8714 4.10291 20.3718 3.86372 20.8261 4.02415L31.4494 7.77475C31.9038 7.93518 32.143 8.43545 31.9825 8.88991L24.0178 31.4494C23.859 31.899 23.3522 32.1415 22.9026 31.9826L21.4577 31.4725C21.2058 31.3836 20.9299 31.5156 20.841 31.7673C20.7521 32.0191 20.8842 32.2952 21.1358 32.3841L22.5807 32.8942C23.5225 33.2266 24.5969 32.7129 24.9294 31.7713L32.8942 9.21172C33.2321 8.25467 32.7284 7.20106 31.7713 6.86314ZM11.2612 24.7381C10.8529 24.7381 10.5207 24.4059 10.5207 23.9975C10.5207 23.5892 10.8529 23.257 11.2612 23.257C11.5526 23.257 11.8127 23.4276 11.9326 23.6847L11.5874 24.6623C11.4866 24.7122 11.3758 24.7381 11.2612 24.7381Z" fill="#E00000"/>
<path d="M18.3271 17.2672L25.0798 19.6513C25.3131 19.7336 25.6134 19.5921 25.6966 19.3564C25.7855 19.1047 25.6534 18.8286 25.4017 18.7397L18.649 16.3555C18.3971 16.2667 18.1212 16.3987 18.0322 16.6504C17.9433 16.9022 18.0753 17.1783 18.3271 17.2672Z" fill="#E00000"/>
<path d="M13.289 25.7872C12.9125 26.8542 13.763 28.0632 14.8989 28.0632C15.6214 28.0632 16.2684 27.6053 16.5089 26.9239C16.8222 26.0362 16.355 25.059 15.4673 24.7456C14.5944 24.4374 13.5972 24.9146 13.289 25.7872ZM15.5973 26.6021C15.4929 26.8977 15.2122 27.0964 14.8989 27.0964C14.4105 27.0964 14.0381 26.5696 14.2006 26.1091C14.3238 25.7603 14.7981 25.5346 15.1455 25.6573C15.5306 25.7932 15.7331 26.2171 15.5973 26.6021Z" fill="#E00000"/>
<path d="M24.9852 20.5408C24.128 20.2379 23.1099 20.7242 22.8067 21.5824C22.4301 22.6493 23.2808 23.8583 24.4167 23.8583C25.1391 23.8583 25.7862 23.4004 26.0266 22.7191C26.3293 21.8621 25.8444 20.844 24.9852 20.5408ZM25.115 22.3972C25.0107 22.6929 24.7301 22.8915 24.4168 22.8915C23.9283 22.8915 23.5558 22.3647 23.7184 21.9042C23.8485 21.5358 24.2956 21.3225 24.6633 21.4523C25.0179 21.5775 25.2438 22.0324 25.115 22.3972Z" fill="#E00000"/>
<path d="M21.6868 8.83703C22.4093 8.83703 23.0562 8.37923 23.2968 7.69791C23.5994 6.84083 23.1143 5.82288 22.2552 5.5195C21.3981 5.21697 20.3799 5.70274 20.0769 6.56105C19.699 7.63146 20.5465 8.83703 21.6868 8.83703ZM20.9885 6.88285C21.1186 6.51458 21.5656 6.3013 21.9333 6.43111C22.2878 6.55634 22.5139 7.01118 22.3852 7.37604C22.2808 7.67168 22.0001 7.87026 21.6868 7.87026C21.1941 7.87026 20.8246 7.34704 20.9885 6.88285Z" fill="#E00000"/>
<path d="M18.8895 9.92442C18.5123 10.993 19.3613 12.2004 20.4994 12.2004C21.2219 12.2004 21.8688 11.7425 22.1094 11.0612C22.4227 10.1735 21.9555 9.19631 21.0678 8.88294C20.2107 8.58028 19.1925 9.06599 18.8895 9.92442ZM20.184 9.83322C20.3691 9.74576 20.5563 9.73287 20.7459 9.79449C21.131 9.93041 21.3337 10.3542 21.1978 10.7393C21.0934 11.0349 20.8127 11.2336 20.4994 11.2336C20.009 11.2336 19.6382 10.7075 19.8012 10.2462C19.8632 10.0705 20.0028 9.91991 20.184 9.83322Z" fill="#E00000"/>
<path d="M17.7021 13.2878C17.3255 14.3547 18.1761 15.5637 19.3121 15.5637C20.0345 15.5637 20.6815 15.1059 20.922 14.4245C21.2289 13.555 20.752 12.5539 19.8805 12.2463C19.0234 11.9435 18.0052 12.4296 17.7021 13.2878ZM18.9967 13.1966C19.1818 13.1091 19.3691 13.0962 19.5587 13.1579C19.9239 13.2868 20.1461 13.7184 20.0105 14.1027C19.9061 14.3983 19.6254 14.597 19.3121 14.597C18.8237 14.597 18.4513 14.0701 18.6138 13.6096C18.6759 13.4339 18.8154 13.2833 18.9967 13.1966Z" fill="#E00000"/>
<path d="M28.8297 11.3589C29.5521 11.3589 30.1991 10.9011 30.4397 10.2196C30.753 9.33186 30.2858 8.3547 29.3981 8.04134C28.5253 7.73326 27.5279 8.21033 27.2197 9.08294C26.8431 10.1499 27.6937 11.3589 28.8297 11.3589ZM28.1314 9.40482C28.2545 9.05607 28.7289 8.83042 29.0762 8.95301C29.4613 9.08894 29.6639 9.51277 29.5281 9.89774C29.4236 10.1934 29.143 10.3921 28.8297 10.3921C28.3412 10.3921 27.9688 9.86532 28.1314 9.40482Z" fill="#E00000"/>
<path d="M26.0323 12.4463C25.8512 12.9591 25.9358 13.5375 26.2585 13.9935C27.0481 15.1098 28.8002 14.8632 29.2522 13.583C29.5656 12.6953 29.0983 11.7181 28.2107 11.4048C27.7947 11.2579 27.3205 11.2864 26.9096 11.483C26.4989 11.6794 26.1791 12.0305 26.0323 12.4463ZM27.3268 12.355C27.5119 12.2676 27.6992 12.2546 27.8887 12.3163C28.2738 12.4522 28.4765 12.8761 28.3406 13.261C28.1388 13.8325 27.3835 13.9096 27.0478 13.4351C26.7808 13.0579 26.9143 12.5523 27.3268 12.355Z" fill="#E00000"/>
<path d="M24.8448 15.8096C24.4682 16.8765 25.3188 18.0856 26.4548 18.0856C27.1772 18.0856 27.8242 17.6278 28.0648 16.9463C28.3781 16.0586 27.9109 15.0814 27.0232 14.768C26.166 14.4654 25.1478 14.9514 24.8448 15.8096ZM26.1394 15.7184C26.3245 15.631 26.5118 15.618 26.7013 15.6797C27.0864 15.8156 27.289 16.2395 27.1532 16.6245C27.0488 16.9201 26.7681 17.1188 26.4548 17.1188C25.9663 17.1188 25.594 16.592 25.7565 16.1315C25.8185 15.9557 25.958 15.8051 26.1394 15.7184Z" fill="#E00000"/>
</svg>
