<svg width="22" height="24" viewBox="0 0 22 24" fill="none" xmlns="http://www.w3.org/2000/svg">
<path d="M11.1261 3.71569C9.27311 5.33975 9.26509 2.10161 11.1261 3.71569ZM11.1407 3.70103C9.51636 1.84807 12.7553 1.83992 11.1407 3.70103ZM12.3229 3.30298C12.4968 3.40029 12.5698 3.603 12.543 3.78941C12.4882 4.16458 12.0265 4.47131 11.1551 3.71569C11.7095 3.22959 12.0998 3.17797 12.3229 3.30298ZM11.1405 3.73029C12.7651 5.58319 9.52607 5.59127 11.1405 3.73029ZM4.52316 8.85821C4.52316 8.85821 4.72482 9.63123 4.47278 10.169C4.47278 10.169 5.26261 10.2195 5.74995 8.94223C6.23729 7.66499 5.83396 7.22275 6.74144 6.08265C7.64899 4.94255 10.0171 5.15692 11.1353 6.66939C12.4075 6.66939 13.4386 7.70058 13.4386 8.97273C13.4386 9.79437 13.0071 10.5136 12.3594 10.9212C12.2812 10.9753 12.2246 11.0068 12.2043 11.0146C12.2039 11.0149 12.2037 11.015 12.2037 11.015C12.1989 11.0168 12.196 11.0179 12.196 11.0179L12.196 11.0186C12.074 11.0659 11.9597 11.1583 11.8811 11.2862C11.7202 11.548 11.8681 11.7872 12.0887 11.9068C12.1999 11.9672 12.3336 11.9674 12.4594 11.9198C13.0111 11.6848 13.417 11.2459 13.6788 10.7243C13.7906 10.822 13.9544 10.8447 14.1097 10.8117C14.2335 10.7852 14.3354 10.6987 14.4002 10.5808C14.7435 9.88979 14.6868 9.09872 14.3922 8.40255C14.6451 8.49921 14.8512 8.34128 14.9457 8.12463C14.9962 8.00855 14.985 7.87532 14.9266 7.75409C14.2273 6.43931 12.3598 6.11126 11.1354 6.66939C12.2537 5.15692 14.6217 4.94255 15.5293 6.08265C16.4367 7.22275 16.0334 7.66499 16.5208 8.94223C17.0081 10.2195 17.798 10.169 17.798 10.169C17.5459 9.63123 17.7476 8.85821 17.7476 8.85821C18.5374 11.9504 20.1282 10.7397 20.1282 10.7397C17.3307 5.75637 11.1354 0.799995 11.1354 0.799995C11.1354 0.799995 4.93997 5.75637 2.14258 10.7397C2.14258 10.7397 3.73333 11.9504 4.52316 8.85821" fill="white"/>
<path d="M7.34406 7.75412C7.28566 7.87535 7.27457 8.00851 7.32515 8.1246C7.41947 8.34131 7.62569 8.49924 7.87852 8.40252C7.58404 9.09875 7.52727 9.88976 7.87057 10.5808C7.93542 10.6988 8.03723 10.7852 8.16094 10.8117C8.31626 10.8448 8.48012 10.822 8.5919 10.7243C8.85372 11.2459 9.25959 11.6848 9.81132 11.9198C9.93718 11.9675 10.0709 11.9672 10.1821 11.9068C10.4027 11.7872 10.5505 11.548 10.3897 11.2862C10.3111 11.1583 10.1967 11.066 10.0747 11.0186L10.0748 11.0179C10.0748 11.0179 10.0718 11.0168 10.0671 11.015C10.0671 11.015 10.0668 11.0149 10.0664 11.0146C10.0461 11.0068 9.98946 10.9751 9.91118 10.9212C9.26369 10.5135 8.83208 9.79434 8.83208 8.9727C8.83208 7.70054 9.86334 6.66942 11.1354 6.66942C9.91092 6.1113 8.04349 6.43927 7.34406 7.75412Z" fill="white"/>
<path d="M3.86964 11.2645C3.82369 11.3752 3.87636 11.5018 3.98683 11.5479C4.09757 11.5937 4.22428 11.5413 4.27017 11.4306C4.31605 11.32 4.26358 11.1931 4.15304 11.1472C4.04243 11.1016 3.91553 11.1539 3.86964 11.2645Z" fill="#C90054"/>
<path d="M4.9129 10.8558C4.83651 11.0401 4.92385 11.2515 5.10811 11.3281C5.29243 11.4044 5.50381 11.317 5.5802 11.1327C5.65672 10.9482 5.56925 10.737 5.38505 10.6605C5.20066 10.5842 4.98935 10.6713 4.9129 10.8558Z" fill="#C90054"/>
<path d="M6.12386 9.98006C6.00824 10.2586 6.14055 10.5779 6.41912 10.6936C6.69757 10.8093 7.0172 10.6771 7.13276 10.3986C7.24832 10.12 7.11614 9.80062 6.83757 9.68499C6.55893 9.5695 6.23943 9.70155 6.12386 9.98006Z" fill="#C90054"/>
<path d="M18.2834 11.5479C18.3938 11.5018 18.4465 11.3752 18.4006 11.2645C18.3547 11.1539 18.2278 11.1015 18.1172 11.1473C18.0066 11.1931 17.9541 11.32 18 11.4307C18.0459 11.5412 18.1726 11.5937 18.2834 11.5479Z" fill="#C90054"/>
<path d="M17.1619 11.3281C17.3462 11.2515 17.4335 11.0401 17.3571 10.8558C17.2806 10.6713 17.0694 10.5841 16.8849 10.6605C16.7007 10.737 16.6133 10.9482 16.6898 11.1327C16.7662 11.317 16.9775 11.4043 17.1619 11.3281Z" fill="#C90054"/>
<path d="M15.8512 10.6936C16.1298 10.578 16.2621 10.2586 16.1465 9.98007C16.0309 9.70156 15.7114 9.56945 15.4327 9.68494C15.1541 9.80064 15.022 10.12 15.1375 10.3986C15.2531 10.6771 15.5728 10.8093 15.8512 10.6936Z" fill="#C90054"/>
<path d="M12.7248 9.48672C12.7765 9.32613 12.805 9.15497 12.805 8.97716C12.805 8.79942 12.7765 8.62826 12.7248 8.46766C12.6271 8.73026 12.2813 8.97716 11.5508 8.97716C12.2813 8.97716 12.6271 9.22425 12.7248 9.48672Z" fill="#C90054"/>
<path d="M9.90967 7.85957C10.1858 7.81466 10.5713 7.99129 10.9353 8.62202C10.5702 7.98934 10.6111 7.56665 10.7894 7.35059C10.4437 7.42489 10.139 7.60713 9.90967 7.85957Z" fill="#C90054"/>
<path d="M12.3714 7.85957C12.142 7.60713 11.8373 7.42489 11.4916 7.35059C11.67 7.56665 11.7108 7.98934 11.3457 8.62202C11.7098 7.99129 12.0953 7.81466 12.3714 7.85957Z" fill="#C90054"/>
<path d="M9.90967 10.0948C10.139 10.3473 10.4437 10.5295 10.7894 10.6038C10.6111 10.3879 10.5702 9.96484 10.9353 9.33248C10.5713 9.96315 10.1858 10.1399 9.90967 10.0948Z" fill="#C90054"/>
<path d="M9.55624 8.46764C9.50456 8.62824 9.47607 8.7994 9.47607 8.97714C9.47607 9.15495 9.50456 9.32611 9.55624 9.48671C9.65395 9.22424 9.99972 8.97714 10.7303 8.97714C9.99972 8.97714 9.65395 8.73025 9.55624 8.46764Z" fill="#C90054"/>
<path d="M12.3714 10.0948C12.0953 10.1399 11.7098 9.96315 11.3457 9.33248C11.7108 9.96484 11.67 10.3879 11.4916 10.6038C11.8373 10.5295 12.142 10.3473 12.3714 10.0948Z" fill="#C90054"/>
<path d="M11.1407 9.22064C11.2751 9.22064 11.384 9.11166 11.384 8.9772C11.384 8.84274 11.2751 8.73389 11.1407 8.73389C11.0063 8.73389 10.8975 8.84274 10.8975 8.9772C10.8975 9.11166 11.0063 9.22064 11.1407 9.22064Z" fill="white"/>
<path d="M11.1257 3.7157C9.26464 2.10162 9.27266 5.33975 11.1257 3.7157Z" fill="#C90054"/>
<path d="M11.1403 3.70102C12.755 1.83991 9.51602 1.84806 11.1403 3.70102Z" fill="#C90054"/>
<path d="M11.1403 3.7303C9.52581 5.59127 12.7649 5.58319 11.1403 3.7303Z" fill="#C90054"/>
<path d="M12.5427 3.78939C12.5696 3.60298 12.4966 3.40028 12.3227 3.30303C12.0994 3.17795 11.7093 3.22964 11.1548 3.71568C12.0262 4.47129 12.4879 4.16456 12.5427 3.78939Z" fill="#C90054"/>
<path d="M4.75411 14.1265C4.78507 14.018 4.82711 13.933 4.86655 13.8699C5.02832 13.611 5.30194 13.4565 5.5985 13.4565C5.91422 13.4565 6.20433 13.6332 6.35548 13.9176C6.39765 13.9969 6.44035 14.1063 6.46023 14.2457C6.54978 14.2239 6.63243 14.2156 6.70614 14.2156C7.19453 14.2156 7.57712 14.5897 7.57712 15.0673C7.57712 15.3284 7.45954 15.5907 7.21037 15.7847C7.4102 15.992 7.48887 16.2363 7.48118 16.4574C7.46521 16.9171 7.08816 17.2773 6.62291 17.2775H6.62265C6.52488 17.2775 6.39687 17.2614 6.25263 17.2035C6.22167 17.312 6.17963 17.397 6.1402 17.4602C5.97849 17.719 5.70481 17.8736 5.40831 17.8736C5.09265 17.8736 4.80261 17.697 4.65139 17.4126C4.60922 17.3333 4.56653 17.2239 4.54665 17.0845C4.45709 17.1064 4.37451 17.1146 4.3008 17.1146H4.3006C3.98103 17.1146 3.69796 16.9548 3.54329 16.687C3.38934 16.4205 3.39097 16.0996 3.54753 15.8283C3.59511 15.746 3.67274 15.6427 3.79638 15.5456C3.59641 15.3383 3.51774 15.0939 3.52543 14.8727C3.54147 14.4129 3.91865 14.0526 4.38403 14.0526C4.48173 14.0526 4.60981 14.0687 4.75411 14.1265ZM2.86139 15.48C0.806444 15.3362 2.87026 19.5687 4.02216 17.8609C2.87026 19.5687 7.56728 19.8972 6.6643 18.0457C7.56728 19.8972 10.2003 15.9934 8.14535 15.8499C10.2003 15.9934 8.13675 11.7619 6.98459 13.4693C8.13675 11.7619 3.4394 11.4324 4.34251 13.2846C3.4394 11.4324 0.806444 15.3362 2.86139 15.48" fill="white"/>
<path d="M17.899 17.1146C17.8252 17.1146 17.7425 17.1064 17.653 17.0845C17.633 17.2239 17.5904 17.3332 17.5482 17.4124C17.3971 17.6969 17.1071 17.8735 16.7915 17.8736H16.7913C16.4948 17.8736 16.2212 17.7191 16.0594 17.4603C16.02 17.3972 15.978 17.3121 15.9469 17.2035C15.8026 17.2613 15.6746 17.2774 15.5769 17.2774C15.1115 17.2774 14.7344 16.9173 14.7184 16.4576C14.7106 16.2365 14.7892 15.9923 14.989 15.785C14.7554 15.6014 14.6224 15.3424 14.6224 15.0673C14.6224 14.5897 15.0051 14.2156 15.4936 14.2156C15.5673 14.2156 15.6499 14.2239 15.7395 14.2457C15.7594 14.1062 15.802 13.9969 15.8442 13.9176C15.9954 13.6332 16.2855 13.4565 16.6011 13.4565C16.8978 13.4565 17.1714 13.611 17.3332 13.8699C17.3726 13.9329 17.4146 14.018 17.4456 14.1265C17.5899 14.0687 17.7179 14.0526 17.8156 14.0526C18.2811 14.0526 18.6583 14.4128 18.6743 14.8727C18.682 15.0939 18.6033 15.3382 18.4035 15.5455C18.6525 15.7395 18.7701 16.0018 18.7701 16.2628C18.7701 16.7404 18.3875 17.1146 17.899 17.1146ZM17.8572 13.2845C18.7602 11.4324 14.0629 11.7618 15.2151 13.4693C14.0629 11.7618 11.9994 15.9934 14.0543 15.8499C11.9994 15.9934 14.6324 19.8972 15.5353 18.0457C14.6324 19.8972 19.3294 19.5687 18.1775 17.8609C19.3294 19.5687 21.3932 15.3362 19.3382 15.48C21.3932 15.3362 18.7602 11.4324 17.8572 13.2845" fill="white"/>
<path d="M16.9288 16.0099C18.1865 17.8739 15.5283 18.0602 16.5141 16.0391C15.5283 18.0602 14.0384 15.8514 16.2817 15.6943C14.0384 15.8514 15.206 13.4563 16.4639 15.3203C15.206 13.4563 17.8644 13.2698 16.8786 15.2908C17.8644 13.2698 19.3543 15.4791 17.1113 15.6355C19.3543 15.4791 18.1865 17.8739 16.9288 16.0099ZM18.7701 16.2628C18.7701 16.0018 18.6525 15.7395 18.4035 15.5455C18.6034 15.3382 18.6821 15.0939 18.6744 14.8727C18.6583 14.4129 18.2812 14.0526 17.8157 14.0526C17.718 14.0526 17.5899 14.0687 17.4457 14.1265C17.4147 14.018 17.3727 13.933 17.3333 13.8699C17.1715 13.611 16.8979 13.4565 16.6012 13.4565C16.2855 13.4565 15.9955 13.6332 15.8443 13.9176C15.8022 13.9969 15.7595 14.1062 15.7395 14.2457C15.65 14.2239 15.5674 14.2156 15.4936 14.2156C15.0052 14.2156 14.6226 14.5898 14.6226 15.0673C14.6226 15.3424 14.7555 15.6014 14.9891 15.7849C14.7893 15.9923 14.7107 16.2365 14.7184 16.4576C14.7345 16.9173 15.1116 17.2775 15.5769 17.2775C15.6747 17.2775 15.8027 17.2614 15.9471 17.2035C15.978 17.3121 16.0201 17.3972 16.0595 17.4603C16.2213 17.7191 16.4949 17.8736 16.7914 17.8736H16.7916C17.1072 17.8735 17.3971 17.6968 17.5483 17.4124C17.5905 17.3332 17.6331 17.2239 17.653 17.0845C17.7427 17.1064 17.8253 17.1146 17.899 17.1146C18.3875 17.1146 18.7702 16.7404 18.7701 16.2628" fill="#C90054"/>
<path d="M5.32132 15.2908C4.33562 13.2698 6.99399 13.4563 5.73611 15.3203C6.99399 13.4563 8.16154 15.8514 5.91822 15.6943C8.16154 15.8514 6.67162 18.0601 5.68586 16.0391C6.67162 18.0601 4.01351 17.8739 5.27113 16.0099C4.01351 17.8739 2.84571 15.4791 5.08876 15.6356C2.84571 15.4791 4.33562 13.2698 5.32132 15.2908ZM3.52571 14.8727C3.51802 15.0939 3.59663 15.3382 3.7966 15.5455C3.67295 15.6426 3.59532 15.7459 3.54774 15.8284C3.39119 16.0995 3.38962 16.4205 3.54351 16.687C3.69818 16.9548 3.98131 17.1146 4.30082 17.1146H4.30101C4.37479 17.1146 4.45731 17.1063 4.54687 17.0845C4.56681 17.224 4.6095 17.3333 4.65167 17.4127C4.80289 17.697 5.09287 17.8737 5.40853 17.8736C5.70509 17.8736 5.97871 17.719 6.14048 17.4601C6.17991 17.3969 6.22189 17.312 6.25291 17.2036C6.39715 17.2613 6.52516 17.2774 6.62287 17.2774H6.62313C7.08844 17.2773 7.46543 16.9171 7.48146 16.4574C7.48915 16.2363 7.41048 15.992 7.21058 15.7847C7.45982 15.5907 7.57741 15.3283 7.57741 15.0672C7.57741 14.5896 7.19474 14.2156 6.70636 14.2156C6.63264 14.2156 6.55 14.2239 6.46051 14.2458C6.44056 14.1062 6.39787 13.9968 6.35577 13.9176C6.20455 13.6331 5.91451 13.4564 5.59878 13.4564C5.30215 13.4564 5.02854 13.611 4.86683 13.8699C4.82739 13.933 4.78535 14.018 4.75439 14.1265C4.61002 14.0687 4.48201 14.0526 4.38431 14.0526C3.91887 14.0526 3.54175 14.4128 3.52571 14.8727" fill="#C90054"/>
<path d="M20.6499 11.9143C20.6499 11.9143 20.109 12.2224 20.4457 12.9672C20.2093 12.9544 19.9781 13.2089 20.2515 13.593C20.6493 14.1519 21.1037 14.9998 20.651 16.8144C19.9166 18.6916 18.0891 20.0253 15.9549 20.0253C15.7445 20.0253 15.5406 20.0089 15.3427 19.9806C12.4072 19.3364 12.3335 16.4052 12.3335 16.4052C11.8337 17.1898 12.2521 17.9519 12.2521 17.9519C12.2521 17.9519 11.395 17.3218 11.5966 16.0109C11.7983 14.7001 11.0998 14.5362 11.0998 14.5362C11.0998 14.5362 10.4013 14.7001 10.603 16.0109C10.8046 17.3218 9.94754 17.9519 9.94754 17.9519C9.94754 17.9519 10.3659 17.1898 9.86607 16.4052C9.86607 16.4052 9.79242 19.3364 6.85691 19.9806C6.65903 20.0089 6.45515 20.0253 6.24475 20.0253C4.11048 20.0253 2.28307 18.6916 1.54864 16.8144C1.09591 14.9998 1.55033 14.1519 1.94812 13.593C2.22154 13.2089 1.99036 12.9544 1.75389 12.9672C2.0906 12.2224 1.54968 11.9143 1.54968 11.9143C1.08066 12.9697 0.799805 14.0087 0.799805 14.9838C0.799805 17.9909 3.23761 20.4287 6.24475 20.4287C6.24703 20.4287 6.24925 20.4285 6.25153 20.4285C6.32544 20.4284 6.3987 20.4264 6.47125 20.4228C6.526 20.4201 6.5801 20.4159 6.634 20.4112C6.64892 20.41 6.66405 20.4092 6.67891 20.4078C9.11098 20.1849 10.6559 18.1655 10.6559 18.1655C10.6559 18.1655 9.49319 20.1452 8.83775 20.725C8.83775 20.725 9.71688 20.9381 10.3979 20.7573C9.31277 21.3937 8.37427 21.0869 8.28549 21.0554L8.28458 21.055C8.28054 21.0536 8.27787 21.0528 8.27787 21.0528L8.27767 21.0532C8.1655 21.0127 8.03827 21.0133 7.92088 21.0659C7.68109 21.1736 7.574 21.4553 7.68161 21.6952C7.72398 21.7893 7.7934 21.8622 7.87624 21.9103C7.56286 21.9111 7.35377 21.869 7.30697 21.8581L7.30566 21.8581C7.2998 21.8567 7.29576 21.8557 7.29576 21.8557L7.29556 21.8564C7.13229 21.8186 6.95474 21.8407 6.79955 21.9339C6.48252 22.1245 6.38006 22.5359 6.57052 22.8529C6.66678 23.0126 6.81924 23.1178 6.98727 23.1584C8.08064 23.373 9.09156 22.8996 9.86685 22.1312C9.44632 22.7593 9.10687 23.2102 9.10687 23.2102H11.0998H13.0927C13.0927 23.2102 12.7533 22.7593 12.3328 22.1313C13.1081 22.8996 14.119 23.373 15.2124 23.1584C15.3804 23.1178 15.5329 23.0126 15.6291 22.8529C15.8195 22.5359 15.7171 22.1245 15.4001 21.9339C15.2449 21.8407 15.0673 21.8186 14.904 21.8564L14.9039 21.8557C14.9039 21.8557 14.8998 21.8567 14.8939 21.8581L14.8927 21.8581C14.8458 21.869 14.6367 21.9111 14.3234 21.9103C14.4062 21.8622 14.4756 21.7893 14.518 21.6952C14.6257 21.4553 14.5185 21.1736 14.2788 21.0659C14.1613 21.0133 14.0342 21.0127 13.9219 21.0532L13.9217 21.0528C13.9217 21.0528 13.9191 21.0536 13.915 21.055L13.9141 21.0554C13.8253 21.0869 12.8868 21.3937 11.8017 20.7573C12.4827 20.9381 13.3619 20.725 13.3619 20.725C12.7064 20.1452 11.5437 18.1655 11.5437 18.1655C11.5437 18.1655 13.0887 20.1849 15.5207 20.4078C15.5356 20.4092 15.5507 20.4101 15.5656 20.4112C15.6196 20.4157 15.6735 20.4202 15.7284 20.4228C15.8009 20.4262 15.874 20.4284 15.9481 20.4285C15.9504 20.4285 15.9526 20.4287 15.9549 20.4287C18.962 20.4287 21.3998 17.9909 21.3998 14.9838C21.3998 14.0087 21.1189 12.9697 20.6499 11.9143Z" fill="white"/>
</svg>
